# xmcd
#
# Track frame offsets:
#	150
#	15235
#	26770
#	43552
#	52842
#	62942
#	75405
#	86320
#	96767
#	108797
#	117625
#	134717
#	144775
#	156500
#	164787
#	174585
#	187945
#	199417
#
# Disc length: 2797
#
# Revision: 6
# Processed by: cddbd v1.5.1PL0 Copyright (c) Steve Scherf et al.
# Submitted via: FreeRIP 2.93 
# Normalized: r5:TSWAP
#
DISCID=ee0aeb12
DTITLE=Various Artist - Top Country Stars
DYEAR=1990
DGENRE=Country
TTITLE0=Billy Jo Spears - Midnight Love
TTITLE1=Bobby Bare - Music City USA
TTITLE2=Boxcar Willie - Take Me Home
TTITLE3=Roger Miller - Chug A Lug
TTITLE4=Johnny Cash - There You Go
TTITLE5=Johnny Horton - North To Alaska
TTITLE6=Conway Twitty - Big Town
TTITLE7=Jerry Lee Lewis and Linda Gail Lewis - Jackson
TTITLE8=Stonewall Jackson - I Love you Because
TTITLE9=Roger Miller - Atta Boy Girl
TTITLE10=Sandy Posey - Rose Of Chimarron
TTITLE11=Buddy Knox - Devil Woman
TTITLE12=Boxcar Willie - Mister, Can You Spare A Dime
TTITLE13=Billy Jo Spears - Baby On My Mind
TTITLE14=Sandy Posey - Diamaond In A Rough
TTITLE15=Willie Nelson - No Tomorrow In Sight
TTITLE16=Faron Young - Let Me Walk In
TTITLE17=Jeannie C. Riley - Help Me Make It Through The Night
EXTD=YEAR: 1990
EXTT0=
EXTT1=
EXTT2=
EXTT3=
EXTT4=
EXTT5=
EXTT6=
EXTT7=
EXTT8=
EXTT9=
EXTT10=
EXTT11=
EXTT12=
EXTT13=
EXTT14=
EXTT15=
EXTT16=
EXTT17=
PLAYORDER=
